<svg width="27" height="27" viewBox="0 0 27 27" fill="none" xmlns="http://www.w3.org/2000/svg">
<g clip-path="url(#clip0)">
<path d="M1.83055 21.0668V25.4435C1.83055 25.7098 2.04689 25.9316 2.31869 25.9316H5.70242C5.96868 25.9316 6.19056 25.7153 6.19056 25.4435V17.7441L3.7332 20.2015C3.21178 20.7174 2.54613 21.0169 1.83055 21.0668Z" fill="#2C5F3A"/>
<path d="M7.87686 17.689V25.4438C7.87686 25.71 8.0932 25.9319 8.36501 25.9319H11.7487C12.015 25.9319 12.2369 25.7156 12.2369 25.4438V20.8785C11.4658 20.8619 10.7447 20.5568 10.2011 20.0132L7.87686 17.689Z" fill="#2C5F3A"/>
<path d="M13.9232 20.3956V25.4434C13.9232 25.7097 14.1395 25.9316 14.4113 25.9316H17.795C18.0613 25.9316 18.2832 25.7152 18.2832 25.4434V16.1299L14.4058 20.0073C14.256 20.1571 14.0951 20.2846 13.9232 20.3956Z" fill="#2C5F3A"/>
<path d="M24.0022 10.4053L19.9695 14.438V25.4434C19.9695 25.7097 20.1858 25.9316 20.4577 25.9316H23.8414C24.1076 25.9316 24.3295 25.7152 24.3295 25.4434V10.7104C24.2186 10.6161 24.1354 10.5329 24.0744 10.4774L24.0022 10.4053Z" fill="#2C5F3A"/>
<path d="M26.7702 3.26071C26.6094 3.08875 26.3653 3 26.0547 3C26.0269 3 25.9936 3 25.9659 3C24.3905 3.07211 22.8207 3.14977 21.2453 3.22188C21.0345 3.23298 20.7461 3.24407 20.5187 3.4715C20.4465 3.54361 20.3911 3.62682 20.3467 3.72667C20.1137 4.23145 20.441 4.55873 20.5963 4.71405L20.9902 5.11344C21.262 5.39079 21.5393 5.66815 21.8167 5.93996L12.2979 15.4643L8.02108 11.1875C7.76592 10.9323 7.422 10.7881 7.05589 10.7881C6.68978 10.7881 6.35141 10.9323 6.09624 11.1875L0.39939 16.8788C-0.13313 17.4113 -0.13313 18.2711 0.39939 18.8037L0.654556 19.0588C0.909722 19.314 1.25364 19.4582 1.61975 19.4582C1.98586 19.4582 2.32423 19.314 2.57939 19.0588L7.05589 14.5823L11.3327 18.8591C11.5879 19.1143 11.9318 19.2585 12.2979 19.2585C12.664 19.2585 13.0024 19.1143 13.2631 18.8591L24.0022 8.11996L25.217 9.32923C25.3613 9.47345 25.561 9.67314 25.866 9.67314C25.9936 9.67314 26.1212 9.63986 26.2543 9.56775C26.3431 9.51783 26.4208 9.46236 26.4873 9.39579C26.7258 9.15727 26.7702 8.85218 26.7813 8.61365C26.8257 7.59299 26.8756 6.57232 26.9255 5.54611L26.9977 4.00957C27.0143 3.68784 26.9422 3.43822 26.7702 3.26071Z" fill="#2C5F3A"/>
</g>
<defs>
<clipPath id="clip0">
<rect width="27" height="27" fill="white"/>
</clipPath>
</defs>
</svg>
