<svg width="20" height="20" viewBox="0 0 20 20" fill="none" xmlns="http://www.w3.org/2000/svg">
<g clip-path="url(#clip0)">
<path fill-rule="evenodd" clip-rule="evenodd" d="M16.2833 0C17.4133 0 18.3333 0.92 18.3333 2.06V20L16.1833 18.1L14.9733 16.98L13.6933 15.79L14.2233 17.64H2.88334C1.75334 17.64 0.833344 16.72 0.833344 15.58V2.06C0.833344 0.92 1.75334 0 2.88334 0H16.2833V0ZM12.4233 13.06C14.6333 12.99 15.4833 11.54 15.4833 11.54C15.4833 8.32 14.0433 5.71 14.0433 5.71C12.6033 4.63 11.2333 4.66 11.2333 4.66L11.0933 4.82C12.7933 5.34 13.5833 6.09 13.5833 6.09C12.5433 5.52 11.5233 5.24 10.5733 5.13C9.85334 5.05 9.16334 5.07 8.55334 5.15L8.38334 5.17C8.03334 5.2 7.18334 5.33 6.11334 5.8C5.74334 5.97 5.52334 6.09 5.52334 6.09C5.52334 6.09 6.35334 5.3 8.15334 4.78L8.05334 4.66C8.05334 4.66 6.68334 4.63 5.24334 5.71C5.24334 5.71 3.80334 8.32 3.80334 11.54C3.80334 11.54 4.64334 12.99 6.85334 13.06C6.85334 13.06 7.22334 12.61 7.52334 12.23C6.25334 11.85 5.77334 11.05 5.77334 11.05L6.05334 11.22L6.09334 11.25L6.13251 11.2725L6.14418 11.2775L6.18334 11.3C6.43334 11.44 6.68334 11.55 6.91334 11.64C7.32334 11.8 7.81334 11.96 8.38334 12.07C9.13334 12.21 10.0133 12.26 10.9733 12.08C11.4433 12 11.9233 11.86 12.4233 11.65C12.7733 11.52 13.1633 11.33 13.5733 11.06C13.5733 11.06 13.0733 11.88 11.7633 12.25C12.0633 12.63 12.4233 13.06 12.4233 13.06ZM7.77334 8.39C7.20334 8.39 6.75334 8.89 6.75334 9.5C6.75334 10.11 7.21334 10.61 7.77334 10.61C8.34334 10.61 8.79334 10.11 8.79334 9.5C8.80334 8.89 8.34334 8.39 7.77334 8.39ZM11.4233 8.39C10.8533 8.39 10.4033 8.89 10.4033 9.5C10.4033 10.11 10.8633 10.61 11.4233 10.61C11.9933 10.61 12.4433 10.11 12.4433 9.5C12.4433 8.89 11.9933 8.39 11.4233 8.39Z" fill="#2891F9"/>
</g>
<defs>
<clipPath id="clip0">
<rect width="20" height="20" fill="white"/>
</clipPath>
</defs>
</svg>
