<svg width="20" height="20" viewBox="0 0 20 20" fill="none" xmlns="http://www.w3.org/2000/svg">
<path d="M6.66536 2C4.0927 2 2 4.09464 2 6.66797V13.3346C2 15.9073 4.09464 18 6.66797 18H13.3346C15.9073 18 18 15.9054 18 13.332V6.66536C18 4.0927 15.9054 2 13.332 2H6.66536ZM14.6667 4.66667C15.0347 4.66667 15.3333 4.96533 15.3333 5.33333C15.3333 5.70133 15.0347 6 14.6667 6C14.2987 6 14 5.70133 14 5.33333C14 4.96533 14.2987 4.66667 14.6667 4.66667ZM10 6C12.206 6 14 7.794 14 10C14 12.206 12.206 14 10 14C7.794 14 6 12.206 6 10C6 7.794 7.794 6 10 6ZM10 7.33333C9.29276 7.33333 8.61448 7.61428 8.11438 8.11438C7.61428 8.61448 7.33333 9.29276 7.33333 10C7.33333 10.7072 7.61428 11.3855 8.11438 11.8856C8.61448 12.3857 9.29276 12.6667 10 12.6667C10.7072 12.6667 11.3855 12.3857 11.8856 11.8856C12.3857 11.3855 12.6667 10.7072 12.6667 10C12.6667 9.29276 12.3857 8.61448 11.8856 8.11438C11.3855 7.61428 10.7072 7.33333 10 7.33333Z" fill="#313A42"/>
</svg>
