<svg width="20" height="20" viewBox="0 0 20 20" fill="none" xmlns="http://www.w3.org/2000/svg">
<path d="M18 1.6001H2.00001C1.77921 1.6001 1.60001 1.7793 1.60001 2.0001V18.0001C1.60001 18.2209 1.77921 18.4001 2.00001 18.4001H18C18.2208 18.4001 18.4 18.2209 18.4 18.0001V2.0001C18.4 1.7793 18.2208 1.6001 18 1.6001ZM16 5.4001L15.2716 6.2789C15.2256 6.3245 15.2 6.3861 15.2 6.4501V13.1001C15.2 13.1641 15.2256 13.2257 15.2716 13.2713L16 14.2185V14.4001H12V14.2185L13.1284 13.2713C13.1744 13.2257 13.2 13.1641 13.2 13.1001V7.1517L9.93921 14.4001H9.93881H9.32161L6.00001 7.3501V12.5933C6.00001 12.6813 6.03041 12.7665 6.08601 12.8353L7.20001 14.2185V14.4001H4.00001V14.2185L5.11321 12.8433C5.16921 12.7745 5.20001 12.6885 5.20001 12.6001V6.5553C5.20001 6.4985 5.18001 6.4437 5.14321 6.4001L4.40001 5.4001V5.2001H7.23881L10.2884 11.6733L13.2008 5.2001H16V5.4001Z" fill="#313A42"/>
</svg>
