<svg width="29" height="29" viewBox="0 0 29 29" fill="none" xmlns="http://www.w3.org/2000/svg">
<path d="M24.9495 3.23145L15.8927 9.95806L17.5675 5.98945L24.9495 3.23145Z" fill="#E2761B" stroke="#E2761B" stroke-linecap="round" stroke-linejoin="round"/>
<path d="M4.04144 3.23145L13.0254 10.0218L11.4325 5.98945L4.04144 3.23145Z" fill="#E4761B" stroke="#E4761B" stroke-linecap="round" stroke-linejoin="round"/>
<path d="M21.6908 18.8237L19.2787 22.5193L24.4397 23.9392L25.9234 18.9057L21.6908 18.8237Z" fill="#E4761B" stroke="#E4761B" stroke-linecap="round" stroke-linejoin="round"/>
<path d="M3.08569 18.9057L4.56027 23.9392L9.72129 22.5193L7.30917 18.8237L3.08569 18.9057Z" fill="#E4761B" stroke="#E4761B" stroke-linecap="round" stroke-linejoin="round"/>
<path d="M9.43002 12.5795L7.99185 14.7549L13.1165 14.9825L12.9344 9.47559L9.43002 12.5795Z" fill="#E4761B" stroke="#E4761B" stroke-linecap="round" stroke-linejoin="round"/>
<path d="M19.5609 12.5797L16.011 9.41211L15.8927 14.9827L21.0082 14.7552L19.5609 12.5797Z" fill="#E4761B" stroke="#E4761B" stroke-linecap="round" stroke-linejoin="round"/>
<path d="M9.7213 22.5191L12.7979 21.0172L10.14 18.9419L9.7213 22.5191Z" fill="#E4761B" stroke="#E4761B" stroke-linecap="round" stroke-linejoin="round"/>
<path d="M16.193 21.0172L19.2787 22.5191L18.8509 18.9419L16.193 21.0172Z" fill="#E4761B" stroke="#E4761B" stroke-linecap="round" stroke-linejoin="round"/>
<path d="M19.2787 22.5195L16.193 21.0176L16.4388 23.0292L16.4115 23.8757L19.2787 22.5195Z" fill="#D7C1B3" stroke="#D7C1B3" stroke-linecap="round" stroke-linejoin="round"/>
<path d="M9.7213 22.5195L12.5885 23.8757L12.5703 23.0292L12.7979 21.0176L9.7213 22.5195Z" fill="#D7C1B3" stroke="#D7C1B3" stroke-linecap="round" stroke-linejoin="round"/>
<path d="M12.634 17.6131L10.0672 16.8576L11.8785 16.0293L12.634 17.6131Z" fill="#233447" stroke="#233447" stroke-linecap="round" stroke-linejoin="round"/>
<path d="M16.3569 17.6131L17.1124 16.0293L18.9328 16.8576L16.3569 17.6131Z" fill="#233447" stroke="#233447" stroke-linecap="round" stroke-linejoin="round"/>
<path d="M9.7213 22.5188L10.1582 18.8232L7.30919 18.9052L9.7213 22.5188Z" fill="#CD6116" stroke="#CD6116" stroke-linecap="round" stroke-linejoin="round"/>
<path d="M18.8418 18.8232L19.2787 22.5188L21.6909 18.9052L18.8418 18.8232Z" fill="#CD6116" stroke="#CD6116" stroke-linecap="round" stroke-linejoin="round"/>
<path d="M21.0082 14.7549L15.8927 14.9824L16.366 17.613L17.1215 16.0292L18.9419 16.8575L21.0082 14.7549Z" fill="#CD6116" stroke="#CD6116" stroke-linecap="round" stroke-linejoin="round"/>
<path d="M10.0672 16.8575L11.8876 16.0292L12.634 17.613L13.1165 14.9824L7.99185 14.7549L10.0672 16.8575Z" fill="#CD6116" stroke="#CD6116" stroke-linecap="round" stroke-linejoin="round"/>
<path d="M7.99185 14.7549L10.14 18.942L10.0672 16.8575L7.99185 14.7549Z" fill="#E4751F" stroke="#E4751F" stroke-linecap="round" stroke-linejoin="round"/>
<path d="M18.9419 16.8575L18.8509 18.942L21.0082 14.7549L18.9419 16.8575Z" fill="#E4751F" stroke="#E4751F" stroke-linecap="round" stroke-linejoin="round"/>
<path d="M13.1165 14.9824L12.634 17.613L13.2348 20.7169L13.3713 16.6299L13.1165 14.9824Z" fill="#E4751F" stroke="#E4751F" stroke-linecap="round" stroke-linejoin="round"/>
<path d="M15.8927 14.9824L15.6469 16.6208L15.7561 20.7169L16.366 17.613L15.8927 14.9824Z" fill="#E4751F" stroke="#E4751F" stroke-linecap="round" stroke-linejoin="round"/>
<path d="M16.366 17.6129L15.7561 20.7168L16.193 21.0172L18.8509 18.9419L18.9419 16.8574L16.366 17.6129Z" fill="#F6851B" stroke="#F6851B" stroke-linecap="round" stroke-linejoin="round"/>
<path d="M10.0672 16.8574L10.14 18.9419L12.7979 21.0172L13.2348 20.7168L12.634 17.6129L10.0672 16.8574Z" fill="#F6851B" stroke="#F6851B" stroke-linecap="round" stroke-linejoin="round"/>
<path d="M16.4115 23.8753L16.4388 23.0288L16.2113 22.8285H12.7797L12.5703 23.0288L12.5885 23.8753L9.7213 22.519L10.7226 23.3383L12.7524 24.7491H16.2386L18.2775 23.3383L19.2787 22.519L16.4115 23.8753Z" fill="#C0AD9E" stroke="#C0AD9E" stroke-linecap="round" stroke-linejoin="round"/>
<path d="M16.193 21.0172L15.7561 20.7168H13.2348L12.7979 21.0172L12.5703 23.0288L12.7797 22.8285H16.2112L16.4388 23.0288L16.193 21.0172Z" fill="#161616" stroke="#161616" stroke-linecap="round" stroke-linejoin="round"/>
<path d="M25.3318 10.395L26.1055 6.68123L24.9495 3.23145L16.193 9.7305L19.5609 12.5795L24.3214 13.9722L25.3773 12.7434L24.9222 12.4157L25.6504 11.7512L25.086 11.3143L25.8142 10.7591L25.3318 10.395Z" fill="#763D16" stroke="#763D16" stroke-linecap="round" stroke-linejoin="round"/>
<path d="M2.89455 6.68123L3.66824 10.395L3.17672 10.7591L3.9049 11.3143L3.34966 11.7512L4.07785 12.4157L3.62273 12.7434L4.6695 13.9722L9.43001 12.5795L12.7979 9.7305L4.04144 3.23145L2.89455 6.68123Z" fill="#763D16" stroke="#763D16" stroke-linecap="round" stroke-linejoin="round"/>
<path d="M24.3214 13.9718L19.5609 12.5791L21.0082 14.7546L18.8509 18.9416L21.6908 18.9052H25.9234L24.3214 13.9718Z" fill="#F6851B" stroke="#F6851B" stroke-linecap="round" stroke-linejoin="round"/>
<path d="M9.43001 12.5791L4.6695 13.9718L3.08569 18.9052H7.30917L10.14 18.9416L7.99184 14.7546L9.43001 12.5791Z" fill="#F6851B" stroke="#F6851B" stroke-linecap="round" stroke-linejoin="round"/>
<path d="M15.8926 14.9828L16.193 9.7308L17.5766 5.98975H11.4325L12.7979 9.7308L13.1164 14.9828L13.2257 16.6395L13.2348 20.7173H15.7561L15.7743 16.6395L15.8926 14.9828Z" fill="#F6851B" stroke="#F6851B" stroke-linecap="round" stroke-linejoin="round"/>
</svg>
