<svg width="27" height="27" viewBox="0 0 27 27" fill="none" xmlns="http://www.w3.org/2000/svg">
<path d="M15.2376 23.7924C14.5699 23.8865 13.8963 23.9338 13.222 23.9341C13.1156 23.9341 13.0136 23.9763 12.9384 24.0515C12.8632 24.1267 12.821 24.2287 12.821 24.3351C12.821 24.4414 12.8632 24.5434 12.9384 24.6186C13.0136 24.6938 13.1156 24.7361 13.222 24.7361C13.9376 24.7358 14.6522 24.6848 15.3606 24.5837C15.4148 24.5783 15.4674 24.5618 15.5151 24.5354C15.5627 24.509 15.6045 24.4732 15.6379 24.4301C15.6712 24.387 15.6954 24.3375 15.709 24.2847C15.7226 24.232 15.7253 24.177 15.717 24.1231C15.7086 24.0692 15.6893 24.0177 15.6604 23.9715C15.6314 23.9253 15.5933 23.8856 15.5484 23.8546C15.5036 23.8237 15.4529 23.8022 15.3994 23.7915C15.346 23.7808 15.2909 23.7811 15.2376 23.7924Z" fill="#013D77"/>
<path d="M18.8465 22.5252L18.5578 22.707C18.1392 23.0009 17.6737 23.2215 17.1811 23.3593C17.1309 23.3752 17.0843 23.4009 17.0441 23.4349C17.0038 23.4689 16.9706 23.5104 16.9464 23.5572C16.9222 23.604 16.9075 23.6551 16.903 23.7076C16.8985 23.7601 16.9045 23.813 16.9204 23.8632C16.9527 23.9646 17.0239 24.049 17.1184 24.0979C17.1652 24.1221 17.2163 24.1368 17.2688 24.1413C17.3213 24.1457 17.3742 24.1398 17.4244 24.1238C17.98 23.9639 18.5057 23.7137 18.9802 23.3833L19.2636 23.2042C19.3109 23.1776 19.3523 23.1417 19.3853 23.0987C19.4184 23.0556 19.4423 23.0063 19.4557 22.9538C19.4691 22.9012 19.4717 22.8464 19.4634 22.7928C19.455 22.7392 19.4359 22.6878 19.4071 22.6418C19.3783 22.5958 19.3405 22.5562 19.2959 22.5252C19.2513 22.4943 19.2009 22.4727 19.1478 22.4618C19.0946 22.4509 19.0398 22.4509 18.9866 22.4618C18.9335 22.4727 18.8831 22.4943 18.8385 22.5252H18.8465Z" fill="#013D77"/>
<path d="M21.6775 20.0281C21.2451 20.5373 20.7603 20.9996 20.2313 21.4075C20.1881 21.4394 20.1517 21.4795 20.1243 21.5257C20.097 21.5718 20.0791 21.623 20.0719 21.6762C20.0646 21.7294 20.0682 21.7834 20.0822 21.8352C20.0962 21.887 20.1205 21.9355 20.1536 21.9777C20.1867 22.0199 20.228 22.0551 20.2749 22.0811C20.3219 22.1071 20.3735 22.1234 20.4269 22.129C20.4802 22.1347 20.5342 22.1296 20.5856 22.114C20.6369 22.0985 20.6846 22.0728 20.7258 22.0384C21.2945 21.5982 21.8159 21.1001 22.2817 20.5521C22.3168 20.5122 22.3437 20.4659 22.3609 20.4156C22.3781 20.3654 22.3852 20.3122 22.3818 20.2592C22.3785 20.2062 22.3647 20.1544 22.3414 20.1067C22.318 20.0591 22.2854 20.0164 22.2456 19.9813C22.2057 19.9462 22.1594 19.9193 22.1091 19.9021C22.0589 19.8849 22.0057 19.8778 21.9527 19.8812C21.8997 19.8845 21.8479 19.8983 21.8002 19.9217C21.7526 19.945 21.71 19.9776 21.6748 20.0174L21.6775 20.0281Z" fill="#013D77"/>
<path d="M23.8696 16.6491C23.8198 16.6318 23.767 16.6245 23.7143 16.6277C23.6617 16.6308 23.6101 16.6443 23.5627 16.6674C23.5153 16.6905 23.4729 16.7227 23.4379 16.7623C23.403 16.8018 23.3761 16.8478 23.359 16.8977C23.2975 17.0795 23.0222 17.5954 22.8244 17.967C22.6827 18.2343 22.557 18.4615 22.5009 18.5925C22.4747 18.6408 22.4588 18.6939 22.454 18.7486C22.4492 18.8032 22.4556 18.8583 22.473 18.9104C22.4903 18.9625 22.5182 19.0104 22.5548 19.0513C22.5915 19.0922 22.6361 19.1251 22.686 19.148C22.7358 19.1709 22.7899 19.1833 22.8448 19.1845C22.8996 19.1857 22.9542 19.1756 23.005 19.1549C23.0558 19.1341 23.1018 19.1032 23.1402 19.0639C23.1785 19.0247 23.2084 18.978 23.228 18.9267C23.2788 18.8144 23.4018 18.5872 23.5301 18.3413C23.749 17.9564 23.9454 17.5592 24.1182 17.1517C24.1507 17.052 24.1428 16.9436 24.0964 16.8497C24.0499 16.7558 23.9685 16.6837 23.8696 16.6491V16.6491Z" fill="#013D77"/>
<path d="M24.3267 12.5137C24.2204 12.5137 24.1184 12.5559 24.0432 12.6311C23.968 12.7063 23.9257 12.8083 23.9257 12.9147C23.9256 13.6381 23.8854 14.361 23.8055 15.08C23.7975 15.1321 23.7999 15.1853 23.8125 15.2366C23.8251 15.2878 23.8477 15.336 23.879 15.3785C23.9103 15.4209 23.9497 15.4568 23.9948 15.484C24.04 15.5113 24.0901 15.5293 24.1423 15.5371H24.2038C24.2977 15.5359 24.3881 15.5018 24.4595 15.4408C24.5308 15.3797 24.5784 15.2956 24.5941 15.203C24.6794 14.4441 24.7222 13.681 24.7224 12.9173C24.7231 12.8114 24.6819 12.7096 24.6078 12.6339C24.5337 12.5583 24.4326 12.5151 24.3267 12.5137V12.5137Z" fill="#013D77"/>
<path d="M24.2252 10.8909C24.2467 10.8682 24.2656 10.8431 24.2813 10.816V10.816C24.2948 10.7905 24.3056 10.7636 24.3134 10.7358V10.7091C24.3156 10.6851 24.3156 10.6609 24.3134 10.6369C24.3134 10.6369 24.3134 10.6209 24.3134 10.6128C24.317 10.5818 24.317 10.5504 24.3134 10.5193C23.7846 8.61652 22.7633 6.88691 21.3525 5.50494C19.9418 4.12298 18.1915 3.13756 16.2782 2.64813C14.365 2.15869 12.3565 2.18255 10.4554 2.7173C8.55431 3.25205 6.8279 4.27876 5.45037 5.69385C4.07284 7.10893 3.09292 8.86232 2.60949 10.7771C2.12605 12.6919 2.15621 14.7003 2.69692 16.5997C3.23763 18.4991 4.26975 20.2222 5.68915 21.5953C7.10855 22.9684 8.86501 23.9428 10.7813 24.4203V24.4203C10.8133 24.4241 10.8456 24.4241 10.8775 24.4203V24.4203C10.9166 24.4197 10.9553 24.4134 10.9925 24.4016H11.0139C11.0492 24.3885 11.0825 24.3705 11.1128 24.3481L11.1288 24.3347L11.1609 24.308L24.2252 10.8909ZM11.1261 23.2039C11.0154 22.5146 10.9645 21.8169 10.9738 21.1188C10.9738 18.3537 12.0722 15.7019 14.0274 13.7467C15.9826 11.7915 18.6344 10.693 21.3995 10.693C21.9862 10.6908 22.5717 10.7455 23.1478 10.8561L11.1261 23.2039ZM3.07426 13.5C3.07285 11.0359 3.94425 8.65092 5.53389 6.76815C7.12352 4.88538 9.32865 3.6265 11.7581 3.21481C14.1876 2.80312 16.6843 3.26523 18.8055 4.51917C20.9267 5.77311 22.5352 7.73783 23.3456 10.0648C22.7043 9.94256 22.0524 9.88436 21.3995 9.89105C18.4217 9.89105 15.5659 11.074 13.4603 13.1796C11.3547 15.2852 10.1718 18.141 10.1718 21.1188C10.156 21.8986 10.2133 22.6781 10.3429 23.4472C8.2297 22.7797 6.38494 21.4547 5.07747 19.6655C3.77 17.8762 3.06816 15.716 3.07426 13.5V13.5Z" fill="#013D77"/>
</svg>
