<svg width="20" height="20" viewBox="0 0 20 20" fill="none" xmlns="http://www.w3.org/2000/svg">
<path d="M17.7508 2.39473C17.556 2.40328 17.3663 2.4575 17.1953 2.52598C17.0261 2.594 16.0516 3.00994 14.6125 3.6252C13.1735 4.24046 11.3028 5.04167 9.44844 5.83614C5.73975 7.42508 2.09532 8.98848 2.09532 8.98848L2.12188 8.97832C2.12188 8.97832 1.90192 9.05185 1.67891 9.20723C1.56741 9.28492 1.44745 9.38522 1.34923 9.53145C1.251 9.67768 1.1792 9.88491 1.20626 10.1041C1.30131 10.874 2.09923 11.0924 2.09923 11.0924L2.10235 11.094L5.66329 12.3127C5.75408 12.6156 6.74333 15.9174 6.96094 16.6166C7.08113 17.0032 7.19361 17.2262 7.31094 17.3783C7.36966 17.4545 7.43119 17.5134 7.49923 17.5564C7.52626 17.5736 7.55469 17.5864 7.58282 17.5979C7.58342 17.5981 7.58378 17.5976 7.58438 17.5979C7.58784 17.5994 7.59109 17.5995 7.59454 17.601L7.58516 17.5986C7.5917 17.6013 7.59815 17.6057 7.60469 17.608C7.61739 17.6125 7.62517 17.6123 7.64141 17.6158C8.04923 17.7582 8.38673 17.4939 8.38673 17.4939L8.40079 17.483L10.5883 15.4541L14.1383 18.2221L14.1828 18.2424C14.8042 18.5183 15.3661 18.3644 15.6773 18.1111C15.9886 17.8579 16.1109 17.5315 16.1109 17.5315L16.1242 17.4971L18.7328 3.90098C18.7996 3.59681 18.809 3.33388 18.7461 3.09629C18.6831 2.85871 18.5302 2.65217 18.3383 2.5377C18.1464 2.42323 17.9456 2.38618 17.7508 2.39473ZM17.7719 3.20801C17.851 3.20435 17.9096 3.21339 17.9281 3.22442C17.9466 3.23544 17.9549 3.23399 17.9727 3.30098C17.9904 3.36797 18 3.50906 17.9516 3.72989L17.95 3.73458L15.3563 17.2518C15.3501 17.2654 15.2961 17.3904 15.1727 17.4908C15.0468 17.5933 14.9068 17.6732 14.5352 17.5174L10.6531 14.49L10.5438 14.4041L10.5414 14.4065L9.38048 13.5354L15.9047 5.85958C15.9548 5.80075 15.9868 5.72866 15.9969 5.65202C16.0069 5.57538 15.9945 5.49748 15.9612 5.42773C15.9279 5.35799 15.8751 5.29938 15.8092 5.259C15.7433 5.21862 15.6671 5.1982 15.5898 5.2002C15.5143 5.20216 15.4409 5.22546 15.3781 5.26739L5.93751 11.5611L2.3711 10.34C2.3711 10.34 2.01696 10.143 2.00001 10.0057C1.99907 9.99806 1.99489 10.0049 2.01329 9.97754C2.03169 9.95015 2.07795 9.90389 2.13594 9.86348C2.25194 9.78266 2.38438 9.73379 2.38438 9.73379L2.39766 9.72911L2.41094 9.72364C2.41094 9.72364 6.05556 8.16015 9.76407 6.57129C11.6183 5.77686 13.4887 4.97625 14.9273 4.36114C16.3657 3.74618 17.405 3.30355 17.493 3.26817C17.5932 3.22805 17.6928 3.21168 17.7719 3.20801ZM13.4453 7.51739L8.49766 13.3385L8.49532 13.3408C8.48759 13.3501 8.4803 13.3598 8.47344 13.3697C8.4656 13.3806 8.45829 13.3918 8.45157 13.4033C8.42377 13.4505 8.40596 13.5029 8.39923 13.5572C8.39922 13.5583 8.39922 13.5593 8.39923 13.5604L7.75469 16.4588C7.74398 16.4275 7.73648 16.416 7.72501 16.3791V16.3783C7.52029 15.7205 6.58695 12.6066 6.45782 12.176L13.4453 7.51739ZM9.05626 14.2924L9.94532 14.9596L8.63907 16.1705L9.05626 14.2924Z" fill="#313A42"/>
</svg>
