<svg width="20" height="20" viewBox="0 0 20 20" fill="none" xmlns="http://www.w3.org/2000/svg">
<path d="M14.1667 2.5H5.83333C3.9925 2.5 2.5 3.9925 2.5 5.83333V14.1667C2.5 16.0075 3.9925 17.5 5.83333 17.5H14.1667C16.0075 17.5 17.5 16.0075 17.5 14.1667V5.83333C17.5 3.9925 16.0075 2.5 14.1667 2.5ZM14.2083 7.92833C14.2083 8 14.2083 8.07083 14.2083 8.21417C14.2083 10.9283 12.1367 14.0717 8.35083 14.0717C7.20833 14.0717 6.13667 13.7142 5.20833 13.1433C5.35083 13.1433 5.56583 13.1433 5.70833 13.1433C6.63667 13.1433 7.56583 12.7858 8.28 12.2858C7.35167 12.2858 6.6375 11.6433 6.35167 10.8575C6.49417 10.8575 6.6375 10.9292 6.70917 10.9292C6.92333 10.9292 7.06667 10.9292 7.28083 10.8575C6.3525 10.6433 5.63833 9.8575 5.63833 8.8575C5.92417 9 6.21 9.07167 6.56667 9.14333C5.995 8.64333 5.63833 8.07167 5.63833 7.3575C5.63833 7 5.71 6.64333 5.92417 6.3575C6.92417 7.57167 8.42417 8.42917 10.1383 8.5C10.1383 8.3575 10.0667 8.21417 10.0667 8C10.0667 6.8575 10.995 5.92833 12.1383 5.92833C12.71 5.92833 13.2808 6.1425 13.6383 6.57083C14.1383 6.49917 14.5667 6.285 14.9242 6.07083C14.7817 6.57083 14.4242 6.92833 13.9958 7.21333C14.4242 7.14167 14.7817 7.07083 15.21 6.85583C14.9225 7.28583 14.5658 7.6425 14.2083 7.92833Z" fill="#313A42"/>
</svg>
